<svg viewBox="0 0 640 400" data-background-color="#dc7720" preserveAspectRatio="xMidYMid meet" height="400" width="640" xmlns="http://www.w3.org/2000/svg" xmlns:xlink="http://www.w3.org/1999/xlink"><rect width="640" height="400" x="0" y="0" opacity="1" fill="#dc7720" data-fill-palette-color="background" id="background"></rect><g id="tight-bounds" transform="matrix(1,0,0,1,122.24000000000001,76.4)"><svg viewBox="0 0 395.52 247.2" height="247.2" width="395.52"><g><svg></svg></g><g><svg viewBox="0 0 395.52 247.2" height="247.2" width="395.52"><g transform="matrix(1,0,0,1,75.54432,90.23631249849342)"><svg viewBox="0 0 244.43135999999998 66.72737500301314" height="66.72737500301314" width="244.43135999999998"><g><svg viewBox="0 0 244.43135999999998 66.72737500301314" height="66.72737500301314" width="244.43135999999998"><g><svg viewBox="0 0 244.43135999999998 66.72737500301314" height="66.72737500301314" width="244.43135999999998"><g><svg viewBox="0 0 244.43135999999998 66.72737500301314" height="66.72737500301314" width="244.43135999999998"><g><svg viewBox="0 0 244.43135999999998 66.72737500301314" height="66.72737500301314" width="244.43135999999998"><g><svg viewBox="0 0 244.43135999999998 66.72737500301314" height="66.72737500301314" width="244.43135999999998"><g transform="matrix(1,0,0,1,0,0)"><svg width="244.43135999999998" viewBox="1.2699999809265137 -40.15999984741211 202.5399932861328 55.29999923706055" height="66.72737500301314" data-palette-color="#eeeeee"><path d="M1.86-19.12L9.94-22.92Q10.03-22.97 10.14-23.02 10.25-23.07 10.3-23.07L10.3-23.07Q10.72-23.07 10.72-22.49L10.72-22.49 10.72-18.33Q10.72-18.26 10.73-18.15 10.74-18.04 10.86-18.04L10.86-18.04Q10.99-18.04 11.06-18.13 11.13-18.21 11.21-18.29L11.21-18.29Q11.65-18.87 12.19-19.59 12.74-20.31 13.37-20.95 13.99-21.58 14.65-22.01 15.31-22.44 15.94-22.44L15.94-22.44Q16.38-22.44 17.09-22.19 17.8-21.95 18.47-21.62 19.14-21.29 19.62-20.94 20.09-20.58 20.09-20.36L20.09-20.36Q20.09-20.14 19.87-19.54 19.65-18.95 19.32-18.33 18.99-17.72 18.62-17.25 18.24-16.77 17.92-16.77L17.92-16.77 17.87-16.77Q17.43-16.92 16.98-17.13 16.53-17.33 16.06-17.54 15.6-17.75 15.12-17.88 14.65-18.02 14.16-18.02L14.16-18.02Q13.43-18.02 12.79-17.71 12.16-17.41 11.71-16.93 11.25-16.46 10.99-15.87 10.72-15.28 10.72-14.75L10.72-14.75 10.72-4.44Q10.72-3.74 11.02-3.26 11.33-2.78 11.8-2.48 12.28-2.17 12.85-2.01 13.43-1.86 13.96-1.76 14.5-1.66 14.94-1.6 15.38-1.54 15.6-1.44L15.6-1.44Q15.84-1.34 15.84-0.76L15.84-0.76Q15.84-0.05 15.6 0L15.6 0 1.51 0Q1.27-0.05 1.27-0.76L1.27-0.76Q1.27-1.34 1.51-1.44L1.51-1.44Q1.83-1.59 2.42-1.67 3-1.76 3.59-2.01 4.17-2.27 4.61-2.82 5.05-3.37 5.05-4.44L5.05-4.44 5.05-16.19Q5.05-16.77 4.74-17.1 4.42-17.43 3.93-17.6 3.44-17.77 2.88-17.88 2.32-17.99 1.81-18.14L1.81-18.14Q1.66-18.19 1.57-18.27 1.49-18.36 1.49-18.63L1.49-18.63Q1.49-18.75 1.56-18.87 1.64-18.99 1.86-19.12L1.86-19.12ZM20.75-36.21L28.83-40.01Q28.93-40.06 29.04-40.11 29.15-40.16 29.2-40.16L29.2-40.16Q29.61-40.16 29.61-39.58L29.61-39.58 29.61-21.14Q29.61-20.9 29.67-20.64 29.73-20.39 29.98-20.39L29.98-20.39Q30.08-20.39 30.37-20.53L30.37-20.53Q31.27-20.95 32.07-21.36 32.86-21.78 33.63-22.11 34.4-22.44 35.18-22.64 35.96-22.85 36.81-22.85L36.81-22.85Q38.74-22.85 40.43-21.97 42.11-21.09 43.37-19.58 44.63-18.07 45.36-16 46.09-13.94 46.09-11.6L46.09-11.6Q46.09-8.89 45.14-6.63 44.19-4.37 42.49-2.75 40.79-1.12 38.46-0.23 36.13 0.66 33.4 0.66L33.4 0.66Q31.93 0.66 30.7 0.55 29.47 0.44 28.37 0.26 27.27 0.07 26.27-0.17 25.27-0.42 24.29-0.66L24.29-0.66Q24.07-0.71 24.01-0.87 23.95-1.03 23.95-1.25L23.95-1.25 23.95-33.28Q23.95-33.86 23.63-34.19 23.31-34.52 22.82-34.69 22.34-34.86 21.77-34.97 21.21-35.08 20.7-35.23L20.7-35.23Q20.55-35.28 20.47-35.36 20.38-35.45 20.38-35.72L20.38-35.72Q20.38-35.84 20.46-35.96 20.53-36.08 20.75-36.21L20.75-36.21ZM29.9-18.33L29.9-18.33Q29.71-18.21 29.66-18.08 29.61-17.94 29.61-17.75L29.61-17.75 29.61-5.96Q29.86-3.64 31.13-2.44 32.39-1.25 34.57-1.25L34.57-1.25Q36.33-1.25 37.5-1.93 38.67-2.61 39.39-3.83 40.11-5.05 40.41-6.7 40.72-8.35 40.72-10.3L40.72-10.3Q40.72-12.21 40.43-13.85 40.13-15.5 39.38-16.74 38.62-17.97 37.33-18.69 36.03-19.41 34.03-19.41L34.03-19.41Q33.37-19.41 32.85-19.36 32.32-19.31 31.86-19.2 31.39-19.09 30.93-18.87 30.47-18.65 29.9-18.33ZM63.23 0L50.48 0Q50.34-0.05 50.29-0.33 50.24-0.61 50.24-0.76L50.24-0.76Q50.24-0.88 50.31-1.15 50.39-1.42 50.48-1.46L50.48-1.46Q50.8-1.61 51.39-1.7 51.97-1.78 52.56-2.04 53.14-2.29 53.58-2.84 54.02-3.39 54.02-4.47L54.02-4.47 54.02-16.19Q54.02-16.77 53.71-17.1 53.39-17.43 52.9-17.6 52.41-17.77 51.85-17.88 51.29-17.99 50.78-18.14L50.78-18.14Q50.63-18.19 50.54-18.27 50.46-18.36 50.46-18.63L50.46-18.63Q50.46-18.75 50.53-18.87 50.61-18.99 50.83-19.12L50.83-19.12 58.91-22.92Q59-22.97 59.11-23.02 59.22-23.07 59.27-23.07L59.27-23.07Q59.69-23.07 59.69-22.49L59.69-22.49 59.69-4.47Q59.69-3.39 60.13-2.84 60.57-2.29 61.15-2.04 61.74-1.78 62.32-1.7 62.91-1.61 63.23-1.46L63.23-1.46Q63.33-1.42 63.4-1.15 63.47-0.88 63.47-0.76L63.47-0.76Q63.47-0.61 63.42-0.33 63.37-0.05 63.23 0L63.23 0ZM52.97-31.91L52.97-31.91Q52.97-33.47 53.9-34.4 54.83-35.33 56.39-35.33L56.39-35.33Q57.95-35.33 58.88-34.4 59.81-33.47 59.81-31.91L59.81-31.91Q59.81-30.35 58.88-29.43 57.95-28.52 56.39-28.52L56.39-28.52Q54.83-28.52 53.9-29.43 52.97-30.35 52.97-31.91ZM68.38-5.18L68.38-18.82 66.55-18.82Q66.2-18.82 66.01-18.99 65.81-19.17 65.79-19.36L65.79-19.36Q65.79-19.48 65.84-19.63 65.89-19.78 65.96-19.82L65.96-19.82Q66.45-20.14 67.02-20.57 67.6-21 68.16-21.46 68.72-21.92 69.26-22.39 69.79-22.85 70.21-23.24L70.21-23.24Q70.45-23.51 70.88-24.05 71.31-24.58 71.86-25.11 72.4-25.63 73.04-26.04 73.67-26.44 74.33-26.44L74.33-26.44Q74.48-26.44 74.68-26.34 74.87-26.25 74.87-26.1L74.87-26.1Q74.87-25.93 74.78-25.57 74.7-25.22 74.58-24.78 74.46-24.34 74.31-23.85 74.16-23.36 74.04-22.9L74.04-22.9Q74.04-22.71 74.1-22.58 74.16-22.46 74.43-22.44L74.43-22.44 80.66-22.44Q81.05-22.44 81.19-22.3 81.34-22.17 81.41-21.95L81.41-21.95Q81.46-21.83 81.51-21.45 81.56-21.07 81.61-20.62 81.66-20.17 81.69-19.71 81.73-19.26 81.73-18.97L81.73-18.97Q81.73-18.82 81.54-18.82L81.54-18.82 74.19-18.82Q74.06-18.82 74.05-18.77 74.04-18.73 74.04-18.6L74.04-18.6 74.04-6.47Q74.04-5.69 74.24-5.1 74.43-4.52 74.74-4.13 75.04-3.74 75.43-3.54 75.82-3.34 76.21-3.34L76.21-3.34Q77.34-3.34 78.04-3.67 78.75-4 79.26-4.39 79.78-4.79 80.17-5.11 80.56-5.44 81.05-5.44L81.05-5.44Q81.39-5.44 81.45-5.18 81.51-4.91 81.51-4.76L81.51-4.76Q81.51-4.44 81.43-4.26 81.34-4.08 81.29-3.98L81.29-3.98Q81.27-3.93 81.02-3.56 80.78-3.2 80.36-2.69 79.95-2.17 79.35-1.59 78.75-1 78.02-0.5 77.29 0 76.42 0.33 75.55 0.66 74.6 0.66L74.6 0.66Q73.28 0.66 72.14 0.17 70.99-0.32 70.16-1.14 69.33-1.95 68.85-3 68.38-4.05 68.38-5.18L68.38-5.18ZM86.03-5.18L86.03-18.82 84.19-18.82Q83.85-18.82 83.66-18.99 83.46-19.17 83.44-19.36L83.44-19.36Q83.44-19.48 83.49-19.63 83.53-19.78 83.61-19.82L83.61-19.82Q84.1-20.14 84.67-20.57 85.24-21 85.81-21.46 86.37-21.92 86.9-22.39 87.44-22.85 87.86-23.24L87.86-23.24Q88.1-23.51 88.53-24.05 88.95-24.58 89.5-25.11 90.05-25.63 90.69-26.04 91.32-26.44 91.98-26.44L91.98-26.44Q92.13-26.44 92.32-26.34 92.52-26.25 92.52-26.1L92.52-26.1Q92.52-25.93 92.43-25.57 92.35-25.22 92.23-24.78 92.1-24.34 91.96-23.85 91.81-23.36 91.69-22.9L91.69-22.9Q91.69-22.71 91.75-22.58 91.81-22.46 92.08-22.44L92.08-22.44 98.31-22.44Q98.7-22.44 98.84-22.3 98.99-22.17 99.06-21.95L99.06-21.95Q99.11-21.83 99.16-21.45 99.21-21.07 99.26-20.62 99.31-20.17 99.34-19.71 99.38-19.26 99.38-18.97L99.38-18.97Q99.38-18.82 99.18-18.82L99.18-18.82 91.84-18.82Q91.71-18.82 91.7-18.77 91.69-18.73 91.69-18.6L91.69-18.6 91.69-6.47Q91.69-5.69 91.88-5.1 92.08-4.52 92.39-4.13 92.69-3.74 93.08-3.54 93.47-3.34 93.86-3.34L93.86-3.34Q94.99-3.34 95.69-3.67 96.4-4 96.91-4.39 97.43-4.79 97.82-5.11 98.21-5.44 98.7-5.44L98.7-5.44Q99.04-5.44 99.1-5.18 99.16-4.91 99.16-4.76L99.16-4.76Q99.16-4.44 99.07-4.26 98.99-4.08 98.94-3.98L98.94-3.98Q98.92-3.93 98.67-3.56 98.43-3.2 98.01-2.69 97.6-2.17 97-1.59 96.4-1 95.67-0.5 94.94 0 94.07 0.33 93.2 0.66 92.25 0.66L92.25 0.66Q90.93 0.66 89.78 0.17 88.64-0.32 87.81-1.14 86.98-1.95 86.5-3 86.03-4.05 86.03-5.18L86.03-5.18ZM108.07 15.14L108.07 15.14Q107.63 15.14 107.21 14.99 106.8 14.84 106.46 14.58 106.12 14.31 105.91 13.95 105.7 13.6 105.7 13.16L105.7 13.16Q105.7 12.48 106.05 12.11 106.41 11.74 106.92 11.5 107.43 11.25 108 11.08 108.56 10.91 108.95 10.62L108.95 10.62Q109.22 10.42 109.52 10.17 109.83 9.91 110.07 9.35L110.07 9.35 113.27 1.9 103.92-17.6Q103.5-18.73 102.72-19.57 101.94-20.41 100.82-20.78L100.82-20.78Q100.65-20.83 100.4-20.89 100.16-20.95 99.93-21.04 99.69-21.14 99.54-21.3 99.38-21.46 99.38-21.73L99.38-21.73Q99.38-21.97 99.52-22.22 99.67-22.46 99.96-22.46L99.96-22.46 112.85-22.46Q113-22.46 113.02-22.17 113.05-21.88 113.05-21.8L113.05-21.8Q113.05-21.46 112.77-21.33 112.49-21.19 112.07-21.14 111.66-21.09 111.18-21.07 110.71-21.04 110.29-20.9 109.88-20.75 109.59-20.43 109.31-20.12 109.31-19.48L109.31-19.48Q109.31-19.41 109.42-19.18 109.53-18.95 109.53-18.9L109.53-18.9 115.59-5.93Q115.64-5.81 115.77-5.58 115.91-5.35 116.08-5.35L116.08-5.35Q116.17-5.35 116.27-5.46 116.37-5.57 116.44-5.71 116.52-5.86 116.56-5.99 116.61-6.13 116.64-6.18L116.64-6.18Q117.76-9.06 118.53-11.06 119.3-13.06 119.8-14.38 120.3-15.7 120.56-16.44 120.81-17.19 120.92-17.59 121.03-17.99 121.06-18.18 121.08-18.36 121.08-18.53L121.08-18.53Q121.13-19.38 120.57-19.95 120.01-20.51 119.23-20.78L119.23-20.78Q119.01-20.85 118.68-20.89 118.35-20.92 118.04-21.01 117.74-21.09 117.5-21.28 117.27-21.46 117.27-21.8L117.27-21.8Q117.27-22 117.44-22.23 117.61-22.46 117.81-22.46L117.81-22.46 127.55-22.46Q127.75-22.46 127.78-22.18 127.82-21.9 127.82-21.78L127.82-21.78Q127.82-21.61 127.77-21.48 127.72-21.36 127.54-21.26 127.36-21.17 127.03-21.07 126.7-20.97 126.16-20.87L126.16-20.87Q125.65-20.78 125.23-20.37 124.82-19.97 124.49-19.45 124.16-18.92 123.9-18.33 123.64-17.75 123.45-17.29L123.45-17.29 111.07 13.38Q110.88 13.84 110.51 14.17 110.14 14.5 109.7 14.72 109.26 14.94 108.83 15.04 108.39 15.14 108.07 15.14ZM156.6-2.71L153.74-0.49Q152.94 0.07 151.84 0.39 150.74 0.71 149.64 0.71L149.64 0.71Q146.66 0.71 145.11-0.63 143.56-1.98 143.56-4.27L143.56-4.27Q143.56-5.59 144.16-6.54 144.76-7.5 145.93-8.23 147.1-8.96 148.82-9.56 150.54-10.16 152.81-10.74L152.81-10.74Q154.04-11.06 154.78-11.43 155.52-11.79 156.16-12.13L156.16-12.13Q156.57-12.35 156.64-12.52 156.7-12.7 156.7-12.84L156.7-12.84 156.7-17.09Q156.7-17.9 156.46-18.59 156.23-19.29 155.77-19.8 155.3-20.31 154.65-20.61 153.99-20.9 153.16-20.9L153.16-20.9Q152.45-20.9 151.84-20.65 151.23-20.41 150.79-19.95 150.35-19.48 150.09-18.85 149.84-18.21 149.84-17.41L149.84-17.41Q149.84-17.33 149.85-17.19 149.86-17.04 149.88-16.88 149.91-16.72 149.93-16.6 149.96-16.48 149.96-16.46L149.96-16.46Q149.93-16.41 149.56-16.26 149.18-16.11 148.63-15.93 148.08-15.75 147.42-15.56 146.76-15.38 146.16-15.21 145.56-15.04 145.11-14.9 144.66-14.77 144.49-14.75L144.49-14.75Q144.22-14.75 144.16-15.03 144.1-15.31 144.1-15.58L144.1-15.58Q144.1-16.99 144.95-18.33 145.81-19.68 147.24-20.72 148.66-21.75 150.52-22.39 152.38-23.02 154.35-23.02L154.35-23.02Q156.11-23.02 157.5-22.57 158.89-22.12 159.87-21.33 160.85-20.53 161.36-19.49 161.87-18.46 161.87-17.29L161.87-17.29 161.87-5.64Q161.87-5 162.35-4.5 162.82-4 163.58-4L163.58-4Q164.02-4 164.37-4.16 164.73-4.32 165.01-4.53 165.29-4.74 165.49-4.9 165.68-5.05 165.83-5.05L165.83-5.05Q166.02-5.05 166.05-4.9 166.07-4.74 166.07-4.61L166.07-4.61Q166.07-4.2 165.96-3.77 165.85-3.34 165.58-3.15L165.58-3.15Q164.39-2.25 163.46-1.53 162.53-0.81 161.77-0.29 161.02 0.22 160.41 0.49 159.8 0.76 159.26 0.76L159.26 0.76Q158.77 0.76 158.39 0.49 158.01 0.22 157.73-0.17 157.45-0.56 157.26-1.01 157.06-1.46 156.93-1.86 156.79-2.25 156.72-2.49 156.65-2.73 156.6-2.71L156.6-2.71ZM149.25-4.86L149.25-4.86Q149.25-4.2 149.51-3.78 149.76-3.37 150.18-3.15 150.59-2.93 151.12-2.84 151.64-2.76 152.2-2.76L152.2-2.76Q152.72-2.76 153.47-3.02 154.23-3.27 154.95-3.7 155.67-4.13 156.18-4.68 156.7-5.22 156.7-5.79L156.7-5.79 156.7-9.81Q156.7-10.08 156.5-10.08L156.5-10.08Q156.45-10.08 156.4-10.06L156.4-10.06 150.74-7.42Q150.4-7.18 150.12-6.97 149.84-6.76 149.64-6.48 149.45-6.2 149.35-5.82 149.25-5.44 149.25-4.86ZM168.53-19.12L176.62-22.92Q176.71-22.97 176.82-23.02 176.93-23.07 176.98-23.07L176.98-23.07Q177.4-23.07 177.4-22.49L177.4-22.49 177.4-18.33Q177.4-18.26 177.41-18.15 177.42-18.04 177.54-18.04L177.54-18.04Q177.67-18.04 177.74-18.13 177.81-18.21 177.89-18.29L177.89-18.29Q178.32-18.87 178.87-19.59 179.42-20.31 180.05-20.95 180.67-21.58 181.33-22.01 181.99-22.44 182.62-22.44L182.62-22.44Q183.06-22.44 183.77-22.19 184.48-21.95 185.15-21.62 185.82-21.29 186.3-20.94 186.77-20.58 186.77-20.36L186.77-20.36Q186.77-20.14 186.55-19.54 186.33-18.95 186-18.33 185.67-17.72 185.29-17.25 184.92-16.77 184.6-16.77L184.6-16.77 184.55-16.77Q184.11-16.92 183.66-17.13 183.21-17.33 182.74-17.54 182.28-17.75 181.8-17.88 181.33-18.02 180.84-18.02L180.84-18.02Q180.11-18.02 179.47-17.71 178.84-17.41 178.39-16.93 177.93-16.46 177.67-15.87 177.4-15.28 177.4-14.75L177.4-14.75 177.4-4.44Q177.4-3.74 177.7-3.26 178.01-2.78 178.48-2.48 178.96-2.17 179.53-2.01 180.11-1.86 180.64-1.76 181.18-1.66 181.62-1.6 182.06-1.54 182.28-1.44L182.28-1.44Q182.52-1.34 182.52-0.76L182.52-0.76Q182.52-0.05 182.28 0L182.28 0 168.19 0Q167.95-0.05 167.95-0.76L167.95-0.76Q167.95-1.34 168.19-1.44L168.19-1.44Q168.51-1.59 169.1-1.67 169.68-1.76 170.27-2.01 170.85-2.27 171.29-2.82 171.73-3.37 171.73-4.44L171.73-4.44 171.73-16.19Q171.73-16.77 171.42-17.1 171.1-17.43 170.61-17.6 170.12-17.77 169.56-17.88 169-17.99 168.49-18.14L168.49-18.14Q168.34-18.19 168.25-18.27 168.17-18.36 168.17-18.63L168.17-18.63Q168.17-18.75 168.24-18.87 168.31-18.99 168.53-19.12L168.53-19.12ZM190.46-5.18L190.46-18.82 188.62-18.82Q188.28-18.82 188.09-18.99 187.89-19.17 187.87-19.36L187.87-19.36Q187.87-19.48 187.92-19.63 187.97-19.78 188.04-19.82L188.04-19.82Q188.53-20.14 189.1-20.57 189.67-21 190.24-21.46 190.8-21.92 191.33-22.39 191.87-22.85 192.29-23.24L192.29-23.24Q192.53-23.51 192.96-24.05 193.39-24.58 193.94-25.11 194.48-25.63 195.12-26.04 195.75-26.44 196.41-26.44L196.41-26.44Q196.56-26.44 196.75-26.34 196.95-26.25 196.95-26.1L196.95-26.1Q196.95-25.93 196.86-25.57 196.78-25.22 196.66-24.78 196.54-24.34 196.39-23.85 196.24-23.36 196.12-22.9L196.12-22.9Q196.12-22.71 196.18-22.58 196.24-22.46 196.51-22.44L196.51-22.44 202.74-22.44Q203.13-22.44 203.27-22.3 203.42-22.17 203.49-21.95L203.49-21.95Q203.54-21.83 203.59-21.45 203.64-21.07 203.69-20.62 203.74-20.17 203.77-19.71 203.81-19.26 203.81-18.97L203.81-18.97Q203.81-18.82 203.62-18.82L203.62-18.82 196.27-18.82Q196.14-18.82 196.13-18.77 196.12-18.73 196.12-18.6L196.12-18.6 196.12-6.47Q196.12-5.69 196.32-5.1 196.51-4.52 196.82-4.13 197.12-3.74 197.51-3.54 197.9-3.34 198.29-3.34L198.29-3.34Q199.42-3.34 200.12-3.67 200.83-4 201.34-4.39 201.86-4.79 202.25-5.11 202.64-5.44 203.13-5.44L203.13-5.44Q203.47-5.44 203.53-5.18 203.59-4.91 203.59-4.76L203.59-4.76Q203.59-4.44 203.51-4.26 203.42-4.08 203.37-3.98L203.37-3.98Q203.35-3.93 203.1-3.56 202.86-3.2 202.44-2.69 202.03-2.17 201.43-1.59 200.83-1 200.1-0.5 199.37 0 198.5 0.33 197.63 0.66 196.68 0.66L196.68 0.66Q195.36 0.66 194.22 0.17 193.07-0.32 192.24-1.14 191.41-1.95 190.93-3 190.46-4.05 190.46-5.18L190.46-5.18Z" opacity="1" transform="matrix(1,0,0,1,0,0)" fill="#eeeeee" class="undefined-text-0" data-fill-palette-color="primary" id="text-0"></path></svg></g></svg></g></svg></g></svg></g></svg></g></svg></g></svg></g><g><path d="M151.089 172.716A122.216 122.216 0 1 0 151.089 74.484L157.106 74.484A116.198 116.198 0 1 1 157.106 172.716L151.089 172.716" fill="#dddddd" stroke="transparent" data-fill-palette-color="tertiary"></path></g></svg></g></svg><rect width="395.52" height="247.2" fill="none" stroke="none" visibility="hidden"></rect></g><defs></defs></svg>